<mxfile host="app.diagrams.net" modified="2021-03-30T06:30:27.674Z" agent="5.0 (Windows NT 10.0; Win64; x64) AppleWebKit/537.36 (KHTML, like Gecko) Chrome/89.0.4389.90 Safari/537.36" etag="ld3Sjr3tU0T6-Se3BA_a" version="14.5.3" type="github">
  <diagram id="prtHgNgQTEPvFCAcTncT" name="Page-1">
    <mxGraphModel dx="981" dy="526" grid="1" gridSize="10" guides="1" tooltips="1" connect="1" arrows="1" fold="1" page="1" pageScale="1" pageWidth="827" pageHeight="1169" background="none" math="0" shadow="1">
      <root>
        <mxCell id="0" />
        <mxCell id="1" parent="0" />
        <mxCell id="fz3NmA5BbuxBCcrhVya9-7" value="&lt;b&gt;工作站CPU&lt;/b&gt;" style="whiteSpace=wrap;html=1;rounded=1;" vertex="1" parent="1">
          <mxGeometry x="280" y="240" width="120" height="60" as="geometry" />
        </mxCell>
        <mxCell id="fz3NmA5BbuxBCcrhVya9-8" value="" style="shape=mxgraph.arrows.slender_two_way_arrow;html=1;verticalLabelPosition=bottom;verticalAlign=top;strokeWidth=2;strokeColor=#000000;rounded=1;fontStyle=0;labelBackgroundColor=none;whiteSpace=wrap;" vertex="1" parent="1">
          <mxGeometry x="400" y="240" width="97" height="60" as="geometry" />
        </mxCell>
        <mxCell id="fz3NmA5BbuxBCcrhVya9-9" value="数据分析系统" style="whiteSpace=wrap;html=1;rounded=1;" vertex="1" parent="1">
          <mxGeometry x="497" y="240" width="120" height="60" as="geometry" />
        </mxCell>
        <mxCell id="fz3NmA5BbuxBCcrhVya9-10" value="" style="shape=mxgraph.arrows.slender_two_way_arrow;html=1;verticalLabelPosition=bottom;verticalAlign=top;strokeWidth=2;strokeColor=#000000;rounded=1;fontStyle=0;labelBackgroundColor=none;whiteSpace=wrap;" vertex="1" parent="1">
          <mxGeometry x="617" y="240" width="97" height="60" as="geometry" />
        </mxCell>
        <mxCell id="fz3NmA5BbuxBCcrhVya9-11" value="应力传感器" style="whiteSpace=wrap;html=1;rounded=1;fontStyle=1" vertex="1" parent="1">
          <mxGeometry x="714" y="240" width="120" height="60" as="geometry" />
        </mxCell>
      </root>
    </mxGraphModel>
  </diagram>
</mxfile>
